<?xml version="1.0" encoding="UTF-8"?>
<svg version="1.1" xmlns="http://www.w3.org/2000/svg" width="146" height="158">
<path d="M0 0 C2.22889496 -0.05428973 4.45817471 -0.09292338 6.6875 -0.125 C8.54955078 -0.15980469 8.54955078 -0.15980469 10.44921875 -0.1953125 C13.81237857 -0.01032021 15.9985587 0.54232105 19 2 C19 2.66 19 3.32 19 4 C21.31 4 23.62 4 26 4 C26 4.66 26 5.32 26 6 C29.65456815 6.75241109 33.31733897 7.40049704 37 8 C37 8.66 37 9.32 37 10 C37.969375 9.979375 38.93875 9.95875 39.9375 9.9375 C43 10 43 10 44 11 C46.32817964 11.36760731 48.6618385 11.70241581 51 12 C51 12.66 51 13.32 51 14 C53.64 14 56.28 14 59 14 C59 14.66 59 15.32 59 16 C59.99 16 60.98 16 62 16 C62.02492036 21.22867495 62.04296332 26.45731449 62.05493164 31.68603516 C62.05992684 33.46078088 62.06672528 35.23552255 62.07543945 37.01025391 C62.16623243 55.99132695 62.16623243 55.99132695 61 64 C60.67 64.33 60.34 64.66 60 65 C59.79395915 66.32781878 59.6337041 67.66295895 59.5 69 C59.11111111 72.88888889 59.11111111 72.88888889 58 74 C57.84170042 75.39244998 57.72334922 76.78953608 57.625 78.1875 C57.20668379 82.38394195 56.06158379 85.28914917 54 89 C53.731875 89.9075 53.46375 90.815 53.1875 91.75 C48.22457437 105.33274383 38.18813268 113.83842135 26 121 C18.7554172 124.31180928 10.84878452 124.2818235 3 124 C1.72125 123.95875 0.4425 123.9175 -0.875 123.875 C-6.47998219 123.13750234 -11.23665978 119.86325781 -16 117 C-16 116.34 -16 115.68 -16 115 C-16.61875 114.855625 -17.2375 114.71125 -17.875 114.5625 C-20 114 -20 114 -22 113 C-22 112.34 -22 111.68 -22 111 C-22.66 111 -23.32 111 -24 111 C-24 110.34 -24 109.68 -24 109 C-24.66 109 -25.32 109 -26 109 C-26 108.34 -26 107.68 -26 107 C-26.66 107 -27.32 107 -28 107 C-28 106.34 -28 105.68 -28 105 C-28.66 105 -29.32 105 -30 105 C-32 102 -32 102 -32 99 C-32.66 99 -33.32 99 -34 99 C-36 96 -36 96 -36 93 C-36.66 93 -37.32 93 -38 93 C-38 91.68 -38 90.36 -38 89 C-39.32 89 -40.64 89 -42 89 C-42 88.34 -42 87.68 -42 87 C-42.66 87 -43.32 87 -44 87 C-44 85.68 -44 84.36 -44 83 C-44.66 83 -45.32 83 -46 83 C-46.02505615 82.30849854 -46.0501123 81.61699707 -46.07592773 80.90454102 C-46.19152161 77.79032134 -46.31441242 74.67643211 -46.4375 71.5625 C-46.49647461 69.92958008 -46.49647461 69.92958008 -46.55664062 68.26367188 C-46.59853516 67.22919922 -46.64042969 66.19472656 -46.68359375 65.12890625 C-46.72025146 64.17056885 -46.75690918 63.21223145 -46.79467773 62.22485352 C-46.75834424 60.02861075 -46.75834424 60.02861075 -48 59 C-48.07179964 57.48071962 -48.08392007 55.95832518 -48.0625 54.4375 C-48.05347656 53.61121094 -48.04445313 52.78492188 -48.03515625 51.93359375 C-48.02355469 51.29550781 -48.01195312 50.65742187 -48 50 C-48.66 50 -49.32 50 -50 50 C-50.144375 48.865625 -50.28875 47.73125 -50.4375 46.5625 C-50.61171478 43.19222799 -50.61171478 43.19222799 -52 42 C-52.31923492 39.9427083 -52.51161352 37.88386479 -52.71875 35.8125 C-52.81998043 33.9832467 -52.81998043 33.9832467 -54 33 C-54.34541851 30.66842508 -54.67794257 28.33491639 -55 26 C-55.33 25.01 -55.66 24.02 -56 23 C-54.64919785 18.62975775 -53.6937859 16.61494659 -50.25 13.5625 C-46.54868183 11.78302011 -44.05708674 11.67543306 -40 12 C-40 11.34 -40 10.68 -40 10 C-34.06 10 -28.12 10 -22 10 C-22 9.34 -22 8.68 -22 8 C-20.02 8 -18.04 8 -16 8 C-16 7.34 -16 6.68 -16 6 C-14.68 6 -13.36 6 -12 6 C-12 5.34 -12 4.68 -12 4 C-10.02 4 -8.04 4 -6 4 C-6 3.34 -6 2.68 -6 2 C-4.02 2 -2.04 2 0 2 C0 1.34 0 0.68 0 0 Z " fill="#0A66C9" transform="translate(84,7)"/>
<path d="M0 0 C0.33 0 0.66 0 1 0 C1.02938023 4.12498468 1.04692535 8.24994191 1.0625 12.375 C1.07087891 13.53128906 1.07925781 14.68757813 1.08789062 15.87890625 C1.12643876 29.52494642 1.12643876 29.52494642 0 36 C-0.33 36.33 -0.66 36.66 -1 37 C-1.20604085 38.32781878 -1.3662959 39.66295895 -1.5 41 C-1.88888889 44.88888889 -1.88888889 44.88888889 -3 46 C-3.15829958 47.39244998 -3.27665078 48.78953608 -3.375 50.1875 C-3.79331621 54.38394195 -4.93841621 57.28914917 -7 61 C-7.268125 61.9075 -7.53625 62.815 -7.8125 63.75 C-12.77542563 77.33274383 -22.81186732 85.83842135 -35 93 C-42.2445828 96.31180928 -50.15121548 96.2818235 -58 96 C-59.27875 95.95875 -60.5575 95.9175 -61.875 95.875 C-67.47998219 95.13750234 -72.23665978 91.86325781 -77 89 C-77 88.34 -77 87.68 -77 87 C-77.61875 86.855625 -78.2375 86.71125 -78.875 86.5625 C-81 86 -81 86 -83 85 C-83 84.34 -83 83.68 -83 83 C-83.66 83 -84.32 83 -85 83 C-85 82.34 -85 81.68 -85 81 C-85.66 81 -86.32 81 -87 81 C-87 80.34 -87 79.68 -87 79 C-87.66 79 -88.32 79 -89 79 C-89 78.34 -89 77.68 -89 77 C-89.66 77 -90.32 77 -91 77 C-93 74 -93 74 -93 71 C-93.66 71 -94.32 71 -95 71 C-97 68 -97 68 -97 65 C-97.66 65 -98.32 65 -99 65 C-99 63.02 -99 61.04 -99 59 C-99.99 58.67 -100.98 58.34 -102 58 C-101.26499268 57.64301025 -100.52998535 57.28602051 -99.77270508 56.91821289 C-92.56005621 53.37018931 -85.59701448 49.54018817 -78.6875 45.4375 C-69.66622403 40.12770961 -60.59990716 34.91075337 -51.47583008 29.77978516 C-46.66032854 27.07077927 -41.85407315 24.34781072 -37.06640625 21.58984375 C-36.11016357 21.0395752 -35.1539209 20.48930664 -34.16870117 19.92236328 C-32.35610835 18.87786122 -30.54498069 17.83081087 -28.7355957 16.78076172 C-27.51682739 16.07910889 -27.51682739 16.07910889 -26.2734375 15.36328125 C-25.56622559 14.95376221 -24.85901367 14.54424316 -24.13037109 14.12231445 C-21.80979948 12.89979924 -19.44900804 11.93477882 -17 11 C-18.1488388 18.406987 -19.90915092 25.47223773 -22.09765625 32.640625 C-23.02331952 36.08681726 -23.56440437 39.46134687 -24 43 C-20.04 43.66 -16.08 44.32 -12 45 C-11.74089844 43.6078125 -11.48179687 42.215625 -11.21484375 40.78125 C-9.97661557 34.59555424 -8.29327871 28.56323753 -6.5625 22.5 C-6.26279297 21.43652344 -5.96308594 20.37304688 -5.65429688 19.27734375 C-3.83155605 12.83251177 -1.94670061 6.4084489 0 0 Z " fill="#0868D0" transform="translate(145,35)"/>
<path d="M0 0 C5.86942803 -0.34251304 10.35462486 0.83850961 15.875 2.75 C22.91945311 5.0889705 29.93845187 7.03844595 37.17895508 8.66210938 C42.53668811 9.86767946 47.77733886 11.30616395 53 13 C53.45336847 19.51037125 51.78816206 24.93766787 49.875 31.125 C49.23503256 33.25241039 48.59572352 35.38001893 47.95703125 37.5078125 C47.6317041 38.58192383 47.30637695 39.65603516 46.97119141 40.76269531 C45.45171546 45.82761513 44.00597751 50.9129983 42.5625 56 C42.06387028 57.75001943 41.56517921 59.50002139 41.06640625 61.25 C40.71449219 62.4875 40.36257812 63.725 40 65 C38.56208484 64.85831863 37.1246763 64.71148957 35.6875 64.5625 C34.48673828 64.44068359 34.48673828 64.44068359 33.26171875 64.31640625 C31 64 31 64 28 63 C27.42821689 55.9650257 29.52693562 49.7625391 31.5 43.0625 C31.83386719 41.90169922 32.16773437 40.74089844 32.51171875 39.54492188 C33.3329359 36.6941252 34.16256593 33.84606678 35 31 C23.17446558 37.63684762 11.38566852 44.3282267 -0.3125 51.1875 C-8.01909282 55.70577731 -15.7601636 60.14060012 -23.59545898 64.43188477 C-27.35566852 66.49950371 -31.06983596 68.62193841 -34.74609375 70.8359375 C-35.52218994 71.30225586 -36.29828613 71.76857422 -37.09790039 72.24902344 C-38.57711878 73.14286656 -40.05186772 74.04416367 -41.52124023 74.95410156 C-45.04058073 77.08089726 -46.79031255 78 -51 78 C-53.3980347 73.80343927 -54.77135921 70.84413583 -54 66 C-51.87499627 64.1288252 -50.1213889 62.92454912 -47.6875 61.5625 C-46.99325928 61.15128906 -46.29901855 60.74007812 -45.58374023 60.31640625 C-43.07272148 58.8459682 -40.53982665 57.42010371 -38 56 C-36.44877441 55.12964111 -36.44877441 55.12964111 -34.86621094 54.24169922 C-30.25403522 51.66074024 -25.63670906 49.08958184 -21.00683594 46.54052734 C-13.92739515 42.64120376 -6.91762705 38.65525424 0.02490234 34.51806641 C7.91470784 29.83095513 15.95867639 25.42037672 24 21 C23.39671875 20.80664062 22.7934375 20.61328125 22.171875 20.4140625 C21.37265625 20.15367188 20.5734375 19.89328125 19.75 19.625 C18.56664063 19.24214844 18.56664063 19.24214844 17.359375 18.8515625 C15 18 15 18 12.90527344 16.95166016 C10.13055344 15.56572236 7.27169457 15.03977281 4.25 14.375 C3.07953125 14.11460938 1.9090625 13.85421875 0.703125 13.5859375 C-0.18890625 13.39257812 -1.0809375 13.19921875 -2 13 C-1.48041715 8.62065881 -0.94324258 4.31196609 0 0 Z " fill="#F6FAFD" transform="translate(93,15)"/>
<path d="M0 0 C0.33 0 0.66 0 1 0 C1.02938023 4.12498468 1.04692535 8.24994191 1.0625 12.375 C1.07087891 13.53128906 1.07925781 14.68757813 1.08789062 15.87890625 C1.12643876 29.52494642 1.12643876 29.52494642 0 36 C-0.33 36.33 -0.66 36.66 -1 37 C-1.23075082 38.34747084 -1.41153063 39.70377565 -1.5625 41.0625 C-1.706875 42.361875 -1.85125 43.66125 -2 45 C-3.98 45.495 -3.98 45.495 -6 46 C-5.94714844 46.84046875 -5.89429688 47.6809375 -5.83984375 48.546875 C-6.02255914 52.48639703 -7.07216977 55.65265117 -8.5625 59.25 C-8.83280029 59.90822754 -9.10310059 60.56645508 -9.3815918 61.24462891 C-13.50547019 70.90439789 -19.81195989 79.35573086 -28 86 C-30.26953125 86.74609375 -30.26953125 86.74609375 -32 87 C-29.66099513 83.78386831 -27.19639934 81.29550866 -24.125 78.8125 C-16.7215381 72.44304116 -13.26377054 64.33308908 -11 55 C-11.66 55 -12.32 55 -13 55 C-13.33 54.34 -13.66 53.68 -14 53 C-14.99 54.65 -15.98 56.3 -17 58 C-19.375 57.75 -19.375 57.75 -22 57 C-23.1640625 54.953125 -23.1640625 54.953125 -24 53 C-34.81965013 52.560079 -34.81965013 52.560079 -44.3125 56.75 C-46.63296156 59.25174762 -48.33604019 62.02238771 -50 65 C-50.66 65 -51.32 65 -52 65 C-51.76603516 65.99580078 -51.76603516 65.99580078 -51.52734375 67.01171875 C-51.33269531 67.89472656 -51.13804688 68.77773437 -50.9375 69.6875 C-50.74027344 70.55761719 -50.54304688 71.42773438 -50.33984375 72.32421875 C-49.97967721 75.16001276 -50.29090031 77.24789982 -51 80 C-52.65 80 -54.3 80 -56 80 C-56.38218767 78.34385343 -56.71395102 76.67542976 -57 75 C-56.505 74.505 -56.505 74.505 -56 74 C-55.84170042 72.60755002 -55.72334922 71.21046392 -55.625 69.8125 C-55.18665367 65.64820988 -54.44929366 62.49899094 -52 59 C-49.4375 58.375 -49.4375 58.375 -47 58 C-46.29605388 56.68596724 -45.63654342 55.3479743 -45 54 C-41.23918909 49.8534649 -38.98045002 48.74171168 -33.375 48.375 C-32.45460938 48.36210938 -31.53421875 48.34921875 -30.5859375 48.3359375 C-27.58115149 47.94558766 -26.2382947 46.98609248 -24 45 C-24.33 44.67 -24.66 44.34 -25 44 C-25.04063832 42.33382885 -25.042721 40.66611905 -25 39 C-24.505 40.98 -24.505 40.98 -24 43 C-20.04 43.66 -16.08 44.32 -12 45 C-11.74089844 43.6078125 -11.48179687 42.215625 -11.21484375 40.78125 C-9.97661557 34.59555424 -8.29327871 28.56323753 -6.5625 22.5 C-6.11293945 20.90478516 -6.11293945 20.90478516 -5.65429688 19.27734375 C-3.83155605 12.83251177 -1.94670061 6.4084489 0 0 Z M-14 48 C-13 50 -13 50 -13 50 Z " fill="#176CB9" transform="translate(145,35)"/>
<path d="M0 0 C4.96230407 -0.35445029 7.65447219 0.69420973 12 3 C14.32873375 3.68255989 16.66182791 4.35050775 19 5 C20.0209375 5.5259375 20.0209375 5.5259375 21.0625 6.0625 C23.12965809 7.17862922 23.12965809 7.17862922 26.1875 7.5 C27.115625 7.665 28.04375 7.83 29 8 C29.33 8.66 29.66 9.32 30 10 C31.7634375 9.9690625 31.7634375 9.9690625 33.5625 9.9375 C37.47413467 9.93052739 41.14497944 10.35749657 45 11 C45 11.66 45 12.32 45 13 C47.64 13 50.28 13 53 13 C53 13.66 53 14.32 53 15 C53.99 15 54.98 15 56 15 C56 16.65 56 18.3 56 20 C51.20415188 19.40814597 46.75048105 18.45224204 42.125 17.0625 C38.30497269 15.93896256 34.52967433 14.84343487 30.625 14.0625 C25.58434007 13.02025828 20.72579056 11.38398991 15.84619141 9.76391602 C11.55908993 8.37137491 7.48027802 7.51785032 3 7 C2.67 9.64 2.34 12.28 2 15 C1.67 15 1.34 15 1 15 C0.85714286 6.42857143 0.85714286 6.42857143 2 3 C1.34 3 0.68 3 0 3 C0 2.01 0 1.02 0 0 Z " fill="#0E72C1" transform="translate(90,8)"/>
<path d="M0 0 C0.33 0 0.66 0 1 0 C1.21875 18.22916667 1.21875 18.22916667 0 25 C-0.33 25.33 -0.66 25.66 -1 26 C-1.23075082 27.34747084 -1.41153063 28.70377565 -1.5625 30.0625 C-1.706875 31.361875 -1.85125 32.66125 -2 34 C-3.98 34.495 -3.98 34.495 -6 35 C-5.94714844 35.84046875 -5.89429688 36.6809375 -5.83984375 37.546875 C-6.02255914 41.48639703 -7.07216977 44.65265117 -8.5625 48.25 C-8.83280029 48.90822754 -9.10310059 49.56645508 -9.3815918 50.24462891 C-13.50547019 59.90439789 -19.81195989 68.35573086 -28 75 C-30.26953125 75.74609375 -30.26953125 75.74609375 -32 76 C-29.66099513 72.78386831 -27.19639934 70.29550866 -24.125 67.8125 C-12.77236217 57.99741794 -9.21077802 42.38629956 -6.44628906 28.22460938 C-5.48011412 23.40853386 -4.4182653 18.61233775 -3.375 13.8125 C-3.15650391 12.79551025 -2.93800781 11.77852051 -2.71289062 10.73071289 C-2.50599609 9.77414795 -2.29910156 8.81758301 -2.0859375 7.83203125 C-1.9007959 6.97327393 -1.7156543 6.1145166 -1.52490234 5.22973633 C-1 3 -1 3 0 0 Z " fill="#67BAE0" transform="translate(145,46)"/>
<path d="M0 0 C0.95003906 0.00966797 1.90007812 0.01933594 2.87890625 0.02929688 C6.91818361 0.09462977 10.59766829 0.19714714 14.5 1.3125 C14.17 2.9625 13.84 4.6125 13.5 6.3125 C12.18 6.3125 10.86 6.3125 9.5 6.3125 C9.005 4.8275 9.005 4.8275 8.5 3.3125 C6.10347472 3.23110858 3.70974564 3.17182991 1.3125 3.125 C0.30219727 3.08729492 0.30219727 3.08729492 -0.72851562 3.04882812 C-5.238854 2.98282317 -7.87789561 3.63981615 -11.5 6.3125 C-12.36625 6.93125 -13.2325 7.55 -14.125 8.1875 C-16.57063421 10.37569903 -17.86070355 12.50227751 -19.5 15.3125 C-20.16 15.3125 -20.82 15.3125 -21.5 15.3125 C-21.34402344 15.97636719 -21.18804687 16.64023438 -21.02734375 17.32421875 C-20.83269531 18.20722656 -20.63804688 19.09023437 -20.4375 20 C-20.24027344 20.87011719 -20.04304688 21.74023438 -19.83984375 22.63671875 C-19.47967721 25.47251276 -19.79090031 27.56039982 -20.5 30.3125 C-22.15 30.3125 -23.8 30.3125 -25.5 30.3125 C-25.88218767 28.65635343 -26.21395102 26.98792976 -26.5 25.3125 C-26.17 24.9825 -25.84 24.6525 -25.5 24.3125 C-25.34170042 22.92005002 -25.22334922 21.52296392 -25.125 20.125 C-24.68665367 15.96070988 -23.94929366 12.81149094 -21.5 9.3125 C-18.9375 8.6875 -18.9375 8.6875 -16.5 8.3125 C-15.37483915 6.47965557 -15.37483915 6.47965557 -14.5 4.3125 C-10.89437495 -1.1310899 -5.88475643 -0.17965674 0 0 Z " fill="#478FE7" transform="translate(114.5,84.6875)"/>
<path d="M0 0 C0.66 0 1.32 0 2 0 C2.35553789 5.9256315 2.03868239 9.74074201 -1 15 C-1.268125 15.9075 -1.53625 16.815 -1.8125 17.75 C-6.77542563 31.33274383 -16.81186732 39.83842135 -29 47 C-33.18808999 48.94447035 -36.37188681 49.18149463 -41 49 C-41 48.34 -41 47.68 -41 47 C-39.25307205 46.32532438 -37.50231475 45.66055844 -35.75 45 C-34.77546875 44.62875 -33.8009375 44.2575 -32.796875 43.875 C-30 43 -30 43 -26 43 C-26 42.34 -26 41.68 -26 41 C-24.61461842 40.09950197 -23.22857518 39.20001082 -21.83984375 38.3046875 C-10.07332377 29.96070093 -3.07817185 16.21767827 -0.25 2.3125 C-0.1675 1.549375 -0.085 0.78625 0 0 Z " fill="#152028" transform="translate(139,81)"/>
<path d="M0 0 C0.99 0 1.98 0 3 0 C3.08160748 1.89510699 3.13946459 3.79124504 3.1875 5.6875 C3.23970703 7.27111328 3.23970703 7.27111328 3.29296875 8.88671875 C2.81530124 13.96273216 0.36943562 17.02809457 -3.4375 20.25 C-4.30181641 21.00023437 -4.30181641 21.00023437 -5.18359375 21.765625 C-10.48856599 25.37072441 -17.90039771 24.50720235 -24 24 C-28.44166493 22.9382659 -32.71401832 21.57129279 -37 20 C-36.67 18.35 -36.34 16.7 -36 15 C-34.35 15.33 -32.7 15.66 -31 16 C-31 16.99 -31 17.98 -31 19 C-26.85858936 20.38047021 -22.96298777 20.22394602 -18.625 20.25 C-17.77421875 20.270625 -16.9234375 20.29125 -16.046875 20.3125 C-11.20677995 20.34265636 -7.90571737 20.19144221 -4 17 C-0.36509624 11.80728035 -0.31684465 6.14023084 0 0 Z " fill="#599DEF" transform="translate(80,25)"/>
<path d="M0 0 C2.75 -0.375 2.75 -0.375 5 0 C5.75 2.25 5.75 2.25 6 5 C4.5 6.9375 4.5 6.9375 2 9 C0.76821238 10.03856603 -0.46081066 11.08041712 -1.6875 12.125 C-2.28949219 12.62257813 -2.89148438 13.12015625 -3.51171875 13.6328125 C-5.12382018 14.95085776 -5.12382018 14.95085776 -6 17 C-10.75 16.125 -10.75 16.125 -13 15 C-13 13.02 -13 11.04 -13 9 C-12.39671875 8.85304688 -11.7934375 8.70609375 -11.171875 8.5546875 C-5.23983402 6.8898889 -3.31906697 5.33421477 0 0 Z " fill="#2F81E3" transform="translate(108,67)"/>
<path d="M0 0 C2.97 0.495 2.97 0.495 6 1 C5.67 2.65 5.34 4.3 5 6 C2.36 6.66 -0.28 7.32 -3 8 C-3 8.66 -3 9.32 -3 10 C-3.81855469 10.55171875 -4.63710937 11.1034375 -5.48046875 11.671875 C-8.34684831 13.82835221 -8.34684831 13.82835221 -8.48828125 17.453125 C-8.43027344 18.70609375 -8.37226562 19.9590625 -8.3125 21.25 C-8.26738281 22.51328125 -8.22226563 23.7765625 -8.17578125 25.078125 C-8.11777344 26.04234375 -8.05976562 27.0065625 -8 28 C-9.98 28.33 -11.96 28.66 -14 29 C-13.76321777 27.07191616 -13.52325024 25.14415966 -13.265625 23.21875 C-13.03585105 21.29946167 -12.91409588 19.36782174 -12.8125 17.4375 C-11.33580361 11.18993834 -6.41894421 7.41894421 -2 3 C-1.34 2.01 -0.68 1.02 0 0 Z " fill="#4E96EF" transform="translate(86,84)"/>
<path d="M0 0 C0.33 1.32 0.66 2.64 1 4 C6.94 4.99 6.94 4.99 13 6 C13 6.33 13 6.66 13 7 C11.35 7 9.7 7 8 7 C8 7.66 8 8.32 8 9 C8.99 9 9.98 9 11 9 C10.25 16.75 10.25 16.75 8 19 C5.5 18.875 5.5 18.875 3 18 C2.34 16.68 1.68 15.36 1 14 C-3.29 14 -7.58 14 -12 14 C-12 13.67 -12 13.34 -12 13 C-7.05 13 -2.1 13 3 13 C3.33 14.32 3.66 15.64 4 17 C5.32 16.67 6.64 16.34 8 16 C8.33 14.68 8.66 13.36 9 12 C-2.385 11.505 -2.385 11.505 -14 11 C-14 10.67 -14 10.34 -14 10 C-12.87851563 9.94392578 -12.87851563 9.94392578 -11.734375 9.88671875 C-10.74953125 9.82097656 -9.7646875 9.75523438 -8.75 9.6875 C-7.77546875 9.62949219 -6.8009375 9.57148437 -5.796875 9.51171875 C-2.74658389 8.95363476 -1.29288724 8.03630224 1 6 C0.67 5.67 0.34 5.34 0 5 C-0.04063832 3.33382885 -0.042721 1.66611905 0 0 Z " fill="#247BDD" transform="translate(120,74)"/>
<path d="M0 0 C2.68231841 2.48362815 4.66079509 5.25825857 6.75 8.25 C15.34169341 20.11620451 25.76468022 28.81476092 40 33 C40 33.33 40 33.66 40 34 C32.80216064 34.95971191 28.02703971 31.66199881 22 28 C22 27.34 22 26.68 22 26 C21.38125 25.855625 20.7625 25.71125 20.125 25.5625 C18 25 18 25 16 24 C16 23.34 16 22.68 16 22 C15.34 22 14.68 22 14 22 C14 21.34 14 20.68 14 20 C13.34 20 12.68 20 12 20 C12 19.34 12 18.68 12 18 C11.34 18 10.68 18 10 18 C10 17.34 10 16.68 10 16 C9.34 16 8.68 16 8 16 C6 13 6 13 6 10 C5.34 10 4.68 10 4 10 C2 7 2 7 2 4 C1.34 4 0.68 4 0 4 C0 2.68 0 1.36 0 0 Z " fill="#091722" transform="translate(46,96)"/>
<path d="M0 0 C1.98 0 3.96 0 6 0 C6.38218767 1.65614657 6.71395102 3.32457024 7 5 C6.67 5.33 6.34 5.66 6 6 C5.76924918 7.34747084 5.58846937 8.70377565 5.4375 10.0625 C5.293125 11.361875 5.14875 12.66125 5 14 C5.66 14 6.32 14 7 14 C7 15.98 7 17.96 7 20 C4.69 20 2.38 20 0 20 C0 13.4 0 6.8 0 0 Z " fill="#4B9AF2" transform="translate(63,20)"/>
<path d="M0 0 C2.64 0.33 5.28 0.66 8 1 C8 1.66 8 2.32 8 3 C10.64 3 13.28 3 16 3 C16 3.66 16 4.32 16 5 C16.99 5 17.98 5 19 5 C19 6.65 19 8.3 19 10 C14.01155691 9.3900874 9.39844654 8.36525565 4.5625 6.9375 C3.32628906 6.57527344 2.09007812 6.21304687 0.81640625 5.83984375 C-0.11300781 5.56269531 -1.04242188 5.28554688 -2 5 C-2 4.67 -2 4.34 -2 4 C-0.02 4 1.96 4 4 4 C2.68 3.67 1.36 3.34 0 3 C0 2.01 0 1.02 0 0 Z " fill="#266A9D" transform="translate(127,18)"/>
<path d="M0 0 C0.33 0 0.66 0 1 0 C1.02705729 1.77074917 1.04642195 3.54161711 1.0625 5.3125 C1.07410156 6.29863281 1.08570313 7.28476563 1.09765625 8.30078125 C1 11 1 11 0 14 C0.2784375 15.1446875 0.2784375 15.1446875 0.5625 16.3125 C1.11532621 19.70843241 0.24879928 21.84127241 -1 25 C-1.33 24.34 -1.66 23.68 -2 23 C-2.66 23 -3.32 23 -4 23 C-5.125 18.25 -5.125 18.25 -4 16 C-5.32 16 -6.64 16 -8 16 C-8 15.34 -8 14.68 -8 14 C-6.35 14 -4.7 14 -3 14 C-2.814375 12.4840625 -2.814375 12.4840625 -2.625 10.9375 C-2.01914665 7.12062388 -1.12806088 3.68499888 0 0 Z " fill="#066DC9" transform="translate(136,67)"/>
<path d="M0 0 C5.4185766 -0.22577402 9.77487721 0.53329887 15 2 C15 2.99 15 3.98 15 5 C10.14730934 6.58455205 6.1744687 7.31046812 1 7 C0 6 0 6 -0.0625 2.9375 C-0.041875 1.968125 -0.02125 0.99875 0 0 Z " fill="#4090EB" transform="translate(43,54)"/>
<path d="M0 0 C0 4.04175348 -1.5367548 5.29789603 -4.15234375 8.22265625 C-9.27455336 13.14994034 -15.65941956 16.89047277 -22.8125 17.125 C-24.3903125 17.063125 -24.3903125 17.063125 -26 17 C-26 16.34 -26 15.68 -26 15 C-24.25307205 14.32532438 -22.50231475 13.66055844 -20.75 13 C-19.28820312 12.443125 -19.28820312 12.443125 -17.796875 11.875 C-15 11 -15 11 -11 11 C-11 10.34 -11 9.68 -11 9 C-9.00715862 7.6559907 -7.00580329 6.32458708 -5 5 C-3.29671681 3.3707726 -1.61838719 1.71358643 0 0 Z " fill="#0A1C2E" transform="translate(124,113)"/>
<path d="M0 0 C-3.31037097 2.00354042 -6.62364067 4.00223552 -9.9375 6 C-10.88302734 6.57234375 -11.82855469 7.1446875 -12.80273438 7.734375 C-14.15141602 8.54648438 -14.15141602 8.54648438 -15.52734375 9.375 C-16.35999756 9.87773438 -17.19265137 10.38046875 -18.05053711 10.8984375 C-20 12 -20 12 -21 12 C-21 8.37 -21 4.74 -21 1 C-19.515 1.99 -19.515 1.99 -18 3 C-18 4.32 -18 5.64 -18 7 C-17.071875 6.505 -16.14375 6.01 -15.1875 5.5 C-12 4 -12 4 -9 4 C-8.67 3.01 -8.34 2.02 -8 1 C-4.68510482 -0.74468167 -3.63361056 -1.21120352 0 0 Z " fill="#217DD6" transform="translate(60,69)"/>
<path d="M0 0 C2.22889496 -0.05428973 4.45817471 -0.09292338 6.6875 -0.125 C8.54955078 -0.15980469 8.54955078 -0.15980469 10.44921875 -0.1953125 C13.81237857 -0.01032021 15.9985587 0.54232105 19 2 C19 2.66 19 3.32 19 4 C21.31 4 23.62 4 26 4 C26 4.66 26 5.32 26 6 C29.65456815 6.75241109 33.31733897 7.40049704 37 8 C37 8.66 37 9.32 37 10 C38.98 10 40.96 10 43 10 C43 10.33 43 10.66 43 11 C40.69 11.33 38.38 11.66 36 12 C35.505 10.515 35.505 10.515 35 9 C33.6696875 9.0928125 33.6696875 9.0928125 32.3125 9.1875 C28.52432822 8.97307518 27.20006761 7.9349246 24 6 C21.70647766 5.40327826 19.4182853 4.9452559 17.0859375 4.52734375 C15 4 15 4 12 2 C9.02550392 1.75780685 9.02550392 1.75780685 5.8125 1.875 C4.72582031 1.89304687 3.63914062 1.91109375 2.51953125 1.9296875 C1.68808594 1.95289063 0.85664062 1.97609375 0 2 C0 1.34 0 0.68 0 0 Z " fill="#0B1725" transform="translate(84,7)"/>
<path d="M0 0 C2.47751393 1.54463259 3.80041094 2.44576071 4.80541992 5.23657227 C4.94568604 6.08791748 5.08595215 6.9392627 5.23046875 7.81640625 C5.39353516 8.74517578 5.55660156 9.67394531 5.72460938 10.63085938 C5.87736328 11.59830078 6.03011719 12.56574219 6.1875 13.5625 C6.51210392 15.48084555 6.83882339 17.39883469 7.16796875 19.31640625 C7.30485107 20.16662354 7.4417334 21.01684082 7.58276367 21.89282227 C7.91227846 24.04536215 7.91227846 24.04536215 9 26 C9.06996014 27.70702735 9.08440154 29.41668003 9.0625 31.125 C9.05347656 32.03507812 9.04445313 32.94515625 9.03515625 33.8828125 C9.02355469 34.58148438 9.01195312 35.28015625 9 36 C8.67 36 8.34 36 8 36 C8 33.03 8 30.06 8 27 C7.34 27 6.68 27 6 27 C5.855625 25.865625 5.71125 24.73125 5.5625 23.5625 C5.38828522 20.19222799 5.38828522 20.19222799 4 19 C3.68076508 16.9427083 3.48838648 14.88386479 3.28125 12.8125 C3.18001957 10.9832467 3.18001957 10.9832467 2 10 C1.65458149 7.66842508 1.32205743 5.33491639 1 3 C0.67 2.01 0.34 1.02 0 0 Z " fill="#060E1E" transform="translate(28,30)"/>
<path d="M0 0 C2 1 2 1 3 3 C1.96875 3.4125 0.9375 3.825 -0.125 4.25 C-3.71668983 5.78515775 -6.78979096 7.7668111 -10 10 C-13.98539873 12.7591222 -17.17445262 13.52690712 -22 14 C-18.4301466 10.13094129 -13.9559513 7.86155131 -9.4375 5.25 C-8.12362305 4.47076172 -8.12362305 4.47076172 -6.78320312 3.67578125 C-5.94595703 3.18980469 -5.10871094 2.70382813 -4.24609375 2.203125 C-3.47966553 1.75614258 -2.7132373 1.30916016 -1.92358398 0.84863281 C-1.28880127 0.56858398 -0.65401855 0.28853516 0 0 Z " fill="#3C6AA1" transform="translate(96,63)"/>
<path d="M0 0 C2.75006608 -0.0270203 5.49986546 -0.04684883 8.25 -0.0625 C9.02730469 -0.07087891 9.80460937 -0.07925781 10.60546875 -0.08789062 C11.73662109 -0.09272461 11.73662109 -0.09272461 12.890625 -0.09765625 C13.92751465 -0.10551147 13.92751465 -0.10551147 14.98535156 -0.11352539 C17.09973898 0.00562029 18.96641515 0.42381763 21 1 C20.67 2.65 20.34 4.3 20 6 C18.68 6 17.36 6 16 6 C15.67 5.01 15.34 4.02 15 3 C9.72 2.67 4.44 2.34 -1 2 C-0.67 1.34 -0.34 0.68 0 0 Z " fill="#5F9BEC" transform="translate(108,85)"/>
<path d="M0 0 C-0.3364345 2.86592355 -0.78543696 3.82078643 -3.0390625 5.703125 C-8.29993451 8.85011188 -11.83299098 10.80439248 -18 10 C-14.78112842 7.47310806 -11.40415973 5.38057026 -7.875 3.3125 C-6.82054687 2.68988281 -5.76609375 2.06726563 -4.6796875 1.42578125 C-2 0 -2 0 0 0 Z " fill="#3067A7" transform="translate(67,81)"/>
<path d="M0 0 C2.6875 -0.3125 2.6875 -0.3125 5 0 C5.33 1.65 5.66 3.3 6 5 C4.73308493 5.67408308 3.46129251 6.33900497 2.1875 7 C1.47980469 7.37125 0.77210937 7.7425 0.04296875 8.125 C-2 9 -2 9 -5 9 C-4.35330586 7.65686601 -3.68096422 6.32608822 -3 5 C-2.3503125 3.63875 -2.3503125 3.63875 -1.6875 2.25 C-1.130625 1.5075 -0.57375 0.765 0 0 Z " fill="#4E93EB" transform="translate(108,67)"/>
<path d="M0 0 C0.33 0 0.66 0 1 0 C1 2.31 1 4.62 1 7 C1.66 7 2.32 7 3 7 C3.38133299 8.9914056 3.71325582 10.99279077 4 13 C3 14 3 14 0.4375 14.0625 C-0.366875 14.041875 -1.17125 14.02125 -2 14 C-3.81975482 8.87160006 -1.8599099 4.82315618 0 0 Z " fill="#468CE9" transform="translate(91,101)"/>
<path d="M0 0 C1 1 1 1 1.125 3.5 C1 6 1 6 0 7 C-3 7.125 -3 7.125 -6 7 C-7 6 -7 6 -7.0625 3.4375 C-7.041875 2.633125 -7.02125 1.82875 -7 1 C-4.51588385 -0.24205807 -2.74800896 -0.14092354 0 0 Z " fill="#3E8CE5" transform="translate(68,97)"/>
<path d="M0 0 C5.08470995 -0.4920687 9.3013013 1.31011713 14 3 C15.175625 3.391875 16.35125 3.78375 17.5625 4.1875 C18.366875 4.455625 19.17125 4.72375 20 5 C12.28571429 11 12.28571429 11 9 11 C9 10.34 9 9.68 9 9 C9.66 8.67 10.32 8.34 11 8 C11.33 7.01 11.66 6.02 12 5 C11.21753906 4.80664062 10.43507813 4.61328125 9.62890625 4.4140625 C8.61699219 4.15367188 7.60507813 3.89328125 6.5625 3.625 C5.55316406 3.36976562 4.54382813 3.11453125 3.50390625 2.8515625 C1 2 1 2 0 0 Z " fill="#337DC6" transform="translate(99,30)"/>
<path d="M0 0 C2.625 0.375 2.625 0.375 5 1 C5.625 2.8125 5.625 2.8125 6 5 C5.01 6.485 5.01 6.485 4 8 C1.375 8.1875 1.375 8.1875 -1 8 C-1.625 5.125 -1.625 5.125 -2 2 C-1.34 1.34 -0.68 0.68 0 0 Z " fill="#478EE7" transform="translate(53,28)"/>
<path d="M0 0 C0 0.66 0 1.32 0 2 C-1.39025391 2.19916016 -1.39025391 2.19916016 -2.80859375 2.40234375 C-4.00613281 2.57894531 -5.20367187 2.75554688 -6.4375 2.9375 C-7.63246094 3.11152344 -8.82742187 3.28554688 -10.05859375 3.46484375 C-12.87955676 3.68985213 -12.87955676 3.68985213 -14 5 C-16.33297433 5.04092937 -18.66705225 5.04241723 -21 5 C-21 4.34 -21 3.68 -21 3 C-13.84466021 0.39241413 -7.59762024 -0.38999191 0 0 Z " fill="#378BD2" transform="translate(59,18)"/>
<path d="M0 0 C1.41948382 0.59751776 2.83547293 1.20334076 4.25 1.8125 C5.03890625 2.14894531 5.8278125 2.48539062 6.640625 2.83203125 C9 4 9 4 10.9375 5.5 C13.42543876 7.30941 15.84718353 8.18533717 18.75 9.1875 C19.73484375 9.53167969 20.7196875 9.87585938 21.734375 10.23046875 C22.48203125 10.48441406 23.2296875 10.73835937 24 11 C24 11.33 24 11.66 24 12 C16.80216064 12.95971191 12.02703971 9.66199881 6 6 C6 5.34 6 4.68 6 4 C5.071875 3.7834375 5.071875 3.7834375 4.125 3.5625 C2 3 2 3 0 2 C0 1.34 0 0.68 0 0 Z " fill="#020B13" transform="translate(62,118)"/>
<path d="M0 0 C0.66 0 1.32 0 2 0 C2.33 0.66 2.66 1.32 3 2 C5.31 2 7.62 2 10 2 C10 2.99 10 3.98 10 5 C11.32 4.67 12.64 4.34 14 4 C14 4.66 14 5.32 14 6 C12.10448978 6.05441656 10.2085208 6.09298035 8.3125 6.125 C7.25675781 6.14820313 6.20101562 6.17140625 5.11328125 6.1953125 C1.97748141 5.99858729 -0.17645373 5.33057654 -3 4 C-2.01 3.67 -1.02 3.34 0 3 C0 2.01 0 1.02 0 0 Z " fill="#2684C4" transform="translate(117,16)"/>
<path d="M0 0 C0.33 0 0.66 0 1 0 C0.85978195 2.64624284 0.71310224 5.29184578 0.5625 7.9375 C0.50352539 9.06961914 0.50352539 9.06961914 0.44335938 10.22460938 C0.11328125 15.88671875 0.11328125 15.88671875 -1 17 C-1.27953219 19.0587768 -1.44734351 21.11728432 -1.62109375 23.1875 C-1.74613281 23.785625 -1.87117187 24.38375 -2 25 C-2.66 25.33 -3.32 25.66 -4 26 C-4.65779458 16.95532459 -2.23437506 8.68812802 0 0 Z " fill="#182B32" transform="translate(145,55)"/>
<path d="M0 0 C2.625 0.375 2.625 0.375 5 1 C5.6875 2.8125 5.6875 2.8125 6 5 C4.5625 6.75 4.5625 6.75 3 8 C1.0625 7.25 1.0625 7.25 -1 6 C-1.875 4 -1.875 4 -2 2 C-1.34 1.34 -0.68 0.68 0 0 Z " fill="#5090E8" transform="translate(104,104)"/>
<path d="M0 0 C0.33 0.99 0.66 1.98 1 3 C-2.48710405 8.99309069 -9.45350517 18.54004354 -16.23828125 20.71875 C-17.11033203 20.85796875 -17.11033203 20.85796875 -18 21 C-15.66122976 17.78419092 -13.17788314 15.25897867 -10.125 12.75 C-5.78954763 9.07217243 -2.90396737 4.85094549 0 0 Z " fill="#6ABFE4" transform="translate(131,101)"/>
<path d="M0 0 C2.31 0 4.62 0 7 0 C7.33 1.65 7.66 3.3 8 5 C5.29120665 6.35439668 2.99066732 6.06501451 0 6 C0 4.02 0 2.04 0 0 Z " fill="#4A8CE3" transform="translate(113,97)"/>
<path d="M0 0 C0.33 0 0.66 0 1 0 C1.39363688 7.74152536 -0.05789567 14.52058632 -2 22 C-2.66 21.67 -3.32 21.34 -4 21 C-3.54034292 13.69303751 -2.11670277 7.00242552 0 0 Z " fill="#4CADD4" transform="translate(145,46)"/>
<path d="M0 0 C0.99 0.33 1.98 0.66 3 1 C2.34034961 7.86036401 0.7637236 14.34443923 -1 21 C-1.33 20.01 -1.66 19.02 -2 18 C-2.66 17.67 -3.32 17.34 -4 17 C-3.34 17 -2.68 17 -2 17 C-1.93941406 16.02417969 -1.87882813 15.04835938 -1.81640625 14.04296875 C-1.73261719 12.77066406 -1.64882812 11.49835938 -1.5625 10.1875 C-1.48128906 8.92292969 -1.40007812 7.65835938 -1.31640625 6.35546875 C-1 3 -1 3 0 0 Z " fill="#076FBC" transform="translate(138,63)"/>
<path d="M0 0 C3.57735001 0.61326 6.64436943 1.64176858 10 3 C11.175625 3.33 12.35125 3.66 13.5625 4 C16.29362034 4.79450773 18.53706635 5.62075715 21 7 C17.09555054 8.50244746 14.37994811 7.44670334 10.5 6.1875 C8.81390625 5.65189453 8.81390625 5.65189453 7.09375 5.10546875 C4.59723779 4.21340694 2.32520219 3.25948452 0 2 C0 1.34 0 0.68 0 0 Z " fill="#69B5DB" transform="translate(92,8)"/>
<path d="M0 0 C0.33 0 0.66 0 1 0 C2.33257403 11.52164009 2.33257403 11.52164009 1 17 C-0.98 17 -2.96 17 -5 17 C-2 15 -2 15 0 15 C-0.33 14.01 -0.66 13.02 -1 12 C-1.09338218 10.12686336 -1.12994843 8.25045638 -1.125 6.375 C-1.12757812 5.39273438 -1.13015625 4.41046875 -1.1328125 3.3984375 C-1 1 -1 1 0 0 Z " fill="#2378E0" transform="translate(78,97)"/>
<path d="M0 0 C0.33 0 0.66 0 1 0 C2.125 7.75 2.125 7.75 1 10 C1.45375 9.505 1.9075 9.01 2.375 8.5 C4 7 4 7 6 7 C6 8.98 6 10.96 6 13 C3.69 13 1.38 13 -1 13 C-0.67 8.71 -0.34 4.42 0 0 Z " fill="#4790E7" transform="translate(64,27)"/>
<path d="M0 0 C0 5.28577264 -3.11087861 8.22863848 -6.6875 11.8125 C-7.78684909 12.87998389 -8.8894285 13.94419641 -10 15 C-10.66 14.67 -11.32 14.34 -12 14 C-11.4225 13.484375 -10.845 12.96875 -10.25 12.4375 C-8.35522627 10.38482846 -7.28634772 8.84684969 -6 6.4375 C-4.18045429 3.31015581 -3.02779828 1.8383061 0 0 Z " fill="#0A0F13" transform="translate(132,105)"/>
<path d="M0 0 C0 0.66 0 1.32 0 2 C-1.609375 3.55078125 -1.609375 3.55078125 -3.75 5.3125 C-8.96986243 9.78402817 -12.3381708 12.88533611 -13 20 C-13.33 20 -13.66 20 -14 20 C-14 17.36 -14 14.72 -14 12 C-13.34 12 -12.68 12 -12 12 C-11.7525 10.9790625 -11.7525 10.9790625 -11.5 9.9375 C-9.47633701 5.9744933 -4.81782557 0 0 0 Z " fill="#1D73DB" transform="translate(107,88)"/>
<path d="M0 0 C6.625 -0.25 6.625 -0.25 10 2 C8.906875 2.226875 7.81375 2.45375 6.6875 2.6875 C2.92666004 3.64838088 2.92666004 3.64838088 1.1875 6.375 C0.5996875 7.674375 0.5996875 7.674375 0 9 C-0.391875 9.763125 -0.78375 10.52625 -1.1875 11.3125 C-1.5896875 12.1478125 -1.5896875 12.1478125 -2 13 C-1.48041715 8.62065881 -0.94324258 4.31196609 0 0 Z " fill="#BDD8F3" transform="translate(93,15)"/>
<path d="M0 0 C0.33 0 0.66 0 1 0 C0.53031881 5.63617433 -0.90672313 10.21417541 -4 15 C-4.99 15.495 -4.99 15.495 -6 16 C-5.56106626 10.51332821 -4.21906781 7.42621824 -1 3 C-0.67 2.01 -0.34 1.02 0 0 Z " fill="#036CC3" transform="translate(133,90)"/>
<path d="M0 0 C0.66 0 1.32 0 2 0 C3.64826111 2.96687001 4.44271087 5.65626525 5 9 C4.01 8.67 3.02 8.34 2 8 C1.67 7.01 1.34 6.02 1 5 C-1.01508358 4.26676204 -1.01508358 4.26676204 -3 4 C-3.66 5.32 -4.32 6.64 -5 8 C-5 6.35 -5 4.7 -5 3 C-3.35 2.67 -1.7 2.34 0 2 C0 1.34 0 0.68 0 0 Z " fill="#207AE0" transform="translate(47,36)"/>
<path d="M0 0 C1.485 0.99 1.485 0.99 3 2 C3 3.32 3 4.64 3 6 C3.66 6 4.32 6 5 6 C4.1875 7.9375 4.1875 7.9375 3 10 C2.01 10.33 1.02 10.66 0 11 C0 7.37 0 3.74 0 0 Z " fill="#3484C7" transform="translate(39,70)"/>
<path d="M0 0 C0.3449145 1.33038449 0.67516582 2.66457061 1 4 C1.226875 4.804375 1.45375 5.60875 1.6875 6.4375 C2.064247 9.52682539 1.34306673 11.23486261 0 14 C-0.99 13.67 -1.98 13.34 -3 13 C-2.45144652 8.428721 -1.58255197 4.32564205 0 0 Z " fill="#307DC2" transform="translate(140,53)"/>
<path d="M0 0 C0.33 0 0.66 0 1 0 C1 1.98 1 3.96 1 6 C-1.93974467 7.52431205 -4.91589594 8.7964472 -8 10 C-8.928125 10.37125 -9.85625 10.7425 -10.8125 11.125 C-11.534375 11.41375 -12.25625 11.7025 -13 12 C-12.34 11.01 -11.68 10.02 -11 9 C-10.34 9 -9.68 9 -9 9 C-9 8.34 -9 7.68 -9 7 C-8.43410156 6.82984375 -7.86820312 6.6596875 -7.28515625 6.484375 C-6.18494141 6.12085937 -6.18494141 6.12085937 -5.0625 5.75 C-4.33160156 5.51796875 -3.60070312 5.2859375 -2.84765625 5.046875 C-0.79429444 4.1492447 -0.79429444 4.1492447 -0.24609375 1.890625 C-0.16488281 1.26671875 -0.08367187 0.6428125 0 0 Z " fill="#2177DD" transform="translate(92,85)"/>
<path d="M0 0 C1.98 0 3.96 0 6 0 C5.67 1.65 5.34 3.3 5 5 C3.0625 5.5625 3.0625 5.5625 1 6 C0 5 0 5 -0.0625 2.4375 C-0.041875 1.633125 -0.02125 0.82875 0 0 Z " fill="#4D95EE" transform="translate(96,77)"/>
<path d="M0 0 C-1.95519384 1.17192047 -3.9142539 2.3373929 -5.875 3.5 C-6.96554688 4.1496875 -8.05609375 4.799375 -9.1796875 5.46875 C-12 7 -12 7 -14 7 C-13.34 5.68 -12.68 4.36 -12 3 C-10.68 3 -9.36 3 -8 3 C-8 2.34 -8 1.68 -8 1 C-4.85571151 -0.9090323 -3.47925125 -1.04523725 0 0 Z " fill="#277CD4" transform="translate(85,55)"/>
<path d="M0 0 C-0.28382946 1.75128818 -0.57739529 3.50100003 -0.875 5.25 C-1.03742188 6.22453125 -1.19984375 7.1990625 -1.3671875 8.203125 C-2 11 -2 11 -4 15 C-3.67 11.7 -3.34 8.4 -3 5 C-4.32 4.34 -5.64 3.68 -7 3 C-2.25 0 -2.25 0 0 0 Z " fill="#4F84C3" transform="translate(128,46)"/>
<path d="M0 0 C2.49958218 1.24979109 3.77830679 2.36780891 4.7109375 5.02734375 C5.63172988 9.03746128 6.26652836 12.86881044 6 17 C5.71125 16.401875 5.4225 15.80375 5.125 15.1875 C3.95257974 12.80672208 3.95257974 12.80672208 2 10 C1.62599214 7.67284 1.29235267 5.33882138 1 3 C0.67 2.01 0.34 1.02 0 0 Z " fill="#071B37" transform="translate(28,30)"/>
<path d="M0 0 C4.62 0 9.24 0 14 0 C14 0.99 14 1.98 14 3 C8.80790596 3.21192221 4.873261 2.5912689 0 1 C0 0.67 0 0.34 0 0 Z " fill="#1B79C5" transform="translate(103,16)"/>
<path d="M0 0 C-0.33 1.65 -0.66 3.3 -1 5 C-5.455 4.01 -5.455 4.01 -10 3 C-4 0 -4 0 0 0 Z " fill="#3A9ED1" transform="translate(90,8)"/>
<path d="M0 0 C3.3 0 6.6 0 10 0 C9.67 0.99 9.34 1.98 9 3 C6.03 3 3.06 3 0 3 C0 2.01 0 1.02 0 0 Z " fill="#236D9D" transform="translate(87,128)"/>
<path d="M0 0 C0.680625 0.70125 1.36125 1.4025 2.0625 2.125 C5.20780513 5.27934337 8.5888386 8.13934304 12 11 C11.67 11.99 11.34 12.98 11 14 C9.34507626 12.42617053 7.70133976 10.84057098 6.0625 9.25 C5.14597656 8.36828125 4.22945312 7.4865625 3.28515625 6.578125 C1.17570657 4.19823305 0.33932929 3.0900625 0 0 Z " fill="#2D8BDD" transform="translate(53,104)"/>
<path d="M0 0 C4.95 0 9.9 0 15 0 C15.33 1.32 15.66 2.64 16 4 C16.99 4.33 17.98 4.66 19 5 C16.525 4.505 16.525 4.505 14 4 C13.67 3.01 13.34 2.02 13 1 C8.71 1 4.42 1 0 1 C0 0.67 0 0.34 0 0 Z " fill="#2E82E6" transform="translate(108,87)"/>
<path d="M0 0 C2 1 2 1 3 3 C-1.39251833 5.02055843 -5.15340923 6.40895235 -10 7 C-6.81404865 4.36021174 -3.69029454 1.89501612 0 0 Z " fill="#4870A3" transform="translate(96,63)"/>
<path d="M0 0 C0 3.52232517 -0.56731481 4.05751328 -2.8125 6.625 C-3.59560547 7.54152344 -3.59560547 7.54152344 -4.39453125 8.4765625 C-6 10 -6 10 -9 11 C-9.66 10.34 -10.32 9.68 -11 9 C-9.6696875 8.1646875 -9.6696875 8.1646875 -8.3125 7.3125 C-5.15720622 5.22146208 -2.60131889 2.75433765 0 0 Z " fill="#162834" transform="translate(124,113)"/>
<path d="M0 0 C1.98 0 3.96 0 6 0 C4.5 2 4.5 2 2 4 C-0.75871627 4.35800135 -3.20097524 4.18660165 -6 4 C-6 3.34 -6 2.68 -6 2 C-4.02 2 -2.04 2 0 2 C0 1.34 0 0.68 0 0 Z " fill="#204556" transform="translate(78,9)"/>
<path d="M0 0 C0.33 0 0.66 0 1 0 C1 3.63 1 7.26 1 11 C-0.32 11.33 -1.64 11.66 -3 12 C-2.01 8.04 -1.02 4.08 0 0 Z " fill="#3E8CCE" transform="translate(136,67)"/>
<path d="M0 0 C2.31 0.33 4.62 0.66 7 1 C7 1.66 7 2.32 7 3 C4.69 3 2.38 3 0 3 C0 3.66 0 4.32 0 5 C-1.65 5 -3.3 5 -5 5 C-4.01 4.67 -3.02 4.34 -2 4 C-2 3.34 -2 2.68 -2 2 C-1.34 2 -0.68 2 0 2 C0 1.34 0 0.68 0 0 Z " fill="#4895EC" transform="translate(50,55)"/>
<path d="M0 0 C2.76276177 0.52268466 5.3260876 1.10869587 8 2 C8 2.66 8 3.32 8 4 C8.66 4.33 9.32 4.66 10 5 C8.02 5 6.04 5 4 5 C4 4.34 4 3.68 4 3 C2.68 2.34 1.36 1.68 0 1 C0 0.67 0 0.34 0 0 Z " fill="#0375E2" transform="translate(75,122)"/>
<path d="M0 0 C-1.29017414 0.98113243 -2.58219106 1.95984199 -3.875 2.9375 C-4.59429687 3.48277344 -5.31359375 4.02804688 -6.0546875 4.58984375 C-8 6 -8 6 -10 7 C-8.19699231 1.4407263 -6.01393878 -1.83689344 0 0 Z " fill="#1F76DB" transform="translate(113,74)"/>
<path d="M0 0 C0.33 0 0.66 0 1 0 C0.67 4.29 0.34 8.58 0 13 C-0.66 13 -1.32 13 -2 13 C-2.16682272 8.07872966 -2.24828052 4.49656104 0 0 Z " fill="#2179E0" transform="translate(70,21)"/>
<path d="M0 0 C2.97 0.495 2.97 0.495 6 1 C5.67 2.65 5.34 4.3 5 6 C3.35 6.33 1.7 6.66 0 7 C1 4 1 4 3 2 C2.01 1.34 1.02 0.68 0 0 Z " fill="#408BE7" transform="translate(86,84)"/>
<path d="M0 0 C0.33 0 0.66 0 1 0 C1.66 3.63 2.32 7.26 3 11 C2.01 11.33 1.02 11.66 0 12 C-0.76173392 7.6835078 -1.16063604 4.25566547 0 0 Z " fill="#609FF2" transform="translate(75,101)"/>
<path d="M0 0 C0.33 0 0.66 0 1 0 C1.33 3.3 1.66 6.6 2 10 C1.34 10 0.68 10 0 10 C0 10.66 0 11.32 0 12 C-0.66 12 -1.32 12 -2 12 C-1.34 8.04 -0.68 4.08 0 0 Z " fill="#5C9DF3" transform="translate(91,101)"/>
<path d="M0 0 C3.27286682 2.7819368 4.96427697 6.27954067 7 10 C6.01 10 5.02 10 4 10 C2 7 2 7 2 4 C1.34 4 0.68 4 0 4 C0 2.68 0 1.36 0 0 Z " fill="#0B1119" transform="translate(46,96)"/>
<path d="M0 0 C0 3 0 3 -1.53125 4.60546875 C-2.1809375 5.12753906 -2.830625 5.64960937 -3.5 6.1875 C-4.1496875 6.71730469 -4.799375 7.24710937 -5.46875 7.79296875 C-5.9740625 8.19128906 -6.479375 8.58960937 -7 9 C-7.66 8.67 -8.32 8.34 -9 8 C-6.03 5.36 -3.06 2.72 0 0 Z " fill="#52A7DA" transform="translate(122,113)"/>
<path d="M0 0 C0.33 0.66 0.66 1.32 1 2 C1.99 2 2.98 2 4 2 C4.33 3.32 4.66 4.64 5 6 C3.68 6 2.36 6 1 6 C0.34 5.34 -0.32 4.68 -1 4 C-0.625 1.875 -0.625 1.875 0 0 Z " fill="#4189E4" transform="translate(103,105)"/>
<path d="M0 0 C0.99 0.33 1.98 0.66 3 1 C3 1.99 3 2.98 3 4 C2.34 4 1.68 4 1 4 C1 5.98 1 7.96 1 10 C-1.56687367 6.1496895 -0.83288724 4.41430237 0 0 Z " fill="#5196B6" transform="translate(138,77)"/>
<path d="M0 0 C0.66 0.66 1.32 1.32 2 2 C-2.10457614 4.98514628 -4.97745369 5.2954439 -10 5 C-10 4.67 -10 4.34 -10 4 C-9.0925 3.71125 -8.185 3.4225 -7.25 3.125 C-4.67797092 2.23468224 -2.38653234 1.28505587 0 0 Z " fill="#1273DF" transform="translate(74,41)"/>
<path d="M0 0 C1.32 0.33 2.64 0.66 4 1 C4 2.65 4 4.3 4 6 C3.01 5.67 2.02 5.34 1 5 C0.67 3.35 0.34 1.7 0 0 Z " fill="#5196EE" transform="translate(52,29)"/>
<path d="M0 0 C3.79588866 0.54226981 5.47211993 2.20127563 8 5 C5.125 4.75 5.125 4.75 2 4 C0.625 1.9375 0.625 1.9375 0 0 Z " fill="#1266BB" transform="translate(71,121)"/>
<path d="M0 0 C0.99 0.495 0.99 0.495 2 1 C2 1.66 2 2.32 2 3 C3.32 3.33 4.64 3.66 6 4 C6 4.99 6 5.98 6 7 C3.53199953 5.84826645 1.95216435 4.95216435 0 3 C0 2.01 0 1.02 0 0 Z " fill="#1077DB" transform="translate(65,115)"/>
<path d="M0 0 C0.66 0.33 1.32 0.66 2 1 C1.67 1.99 1.34 2.98 1 4 C-2.0625 5.1875 -2.0625 5.1875 -5 6 C-5.66 5.34 -6.32 4.68 -7 4 C-1.7265625 0.77734375 -1.7265625 0.77734375 0 0 Z " fill="#4171AC" transform="translate(105,58)"/>
<path d="M0 0 C-1.45537568 0.83848804 -2.91440373 1.67063934 -4.375 2.5 C-5.59316406 3.19609375 -5.59316406 3.19609375 -6.8359375 3.90625 C-9 5 -9 5 -11 5 C-10 2 -10 2 -7.1875 0.25 C-3.86017895 -1.05483179 -3.20415723 -1.02866653 0 0 Z " fill="#2679CF" transform="translate(103,45)"/>
<path d="M0 0 C0.99 0.33 1.98 0.66 3 1 C0.47211993 3.79872437 -1.20411134 5.45773019 -5 6 C-5 5.34 -5 4.68 -5 4 C-2.6875 1.8125 -2.6875 1.8125 0 0 Z " fill="#2A77C8" transform="translate(113,35)"/>
<path d="M0 0 C0.66 0 1.32 0 2 0 C2.103125 0.61875 2.20625 1.2375 2.3125 1.875 C2.87525373 4.36526484 2.87525373 4.36526484 6 6 C-0.75 5.25 -0.75 5.25 -3 3 C-2.01 3 -1.02 3 0 3 C0 2.01 0 1.02 0 0 Z " fill="#53AAE7" transform="translate(117,16)"/>
<path d="M0 0 C3.37462715 0.54723683 5.08235 1.0549 8 3 C8 3.66 8 4.32 8 5 C7.236875 4.690625 6.47375 4.38125 5.6875 4.0625 C3.81210323 3.32106407 1.91315348 2.63771783 0 2 C0 1.34 0 0.68 0 0 Z " fill="#3FB2EC" transform="translate(92,8)"/>
<path d="M0 0 C4.03384128 2.07143201 5.92856799 3.96615872 8 8 C4.63820226 6.55922954 2.40843732 4.75249979 0 2 C0 1.34 0 0.68 0 0 Z " fill="#0379E3" transform="translate(57,107)"/>
<path d="M0 0 C0.66 0.33 1.32 0.66 2 1 C2 3.31 2 5.62 2 8 C0.5 6.625 0.5 6.625 -1 5 C-1 4.34 -1 3.68 -1 3 C-1.99 2.67 -2.98 2.34 -4 2 C-2.125 0.9375 -2.125 0.9375 0 0 Z " fill="#366692" transform="translate(47,91)"/>
<path d="M0 0 C1.98 0.495 1.98 0.495 4 1 C4 1.99 4 2.98 4 4 C2.35 4 0.7 4 -1 4 C-0.67 2.68 -0.34 1.36 0 0 Z " fill="#5196F0" transform="translate(65,99)"/>
<path d="M0 0 C0.33 1.32 0.66 2.64 1 4 C-0.98 4.99 -0.98 4.99 -3 6 C-3 4.68 -3 3.36 -3 2 C-2.01 1.34 -1.02 0.68 0 0 Z " fill="#418EE5" transform="translate(82,90)"/>
</svg>
